# xmcd
#
# Track frame offsets: 
#        150
#        16865
#        29977
#        45020
#        60922
#        77570
#        90732
#        107722
#        121290
#        132352
#
# Disc length: 2059 seconds
#
# Revision: 8
# Processed by: cddbd v1.5.2PL0 Copyright (c) Steve Scherf et al.
# Submitted via: ExactAudioCopyFreeDBPlugin 1.0
#
DISCID=7308090a
DTITLE=Diamond Rio - Love a Little Stronger
DYEAR=1994
DGENRE=Country
TTITLE0=Love a Little Stronger
TTITLE1=You Ain't In It
TTITLE2=Finish What We Started
TTITLE3=Night Is Fallin' in My Heart
TTITLE4=Down by the Riverside
TTITLE5=Wild Blue Yonder
TTITLE6=Bubba Hyde
TTITLE7=Gone Out of My Mind
TTITLE8=Appalachian Dream
TTITLE9=Kentucky Mine
EXTD=YEAR: 1994 ID3G: 2
EXTT0=
EXTT1=
EXTT2=
EXTT3=
EXTT4=
EXTT5=
EXTT6=
EXTT7=
EXTT8=
EXTT9=
PLAYORDER=
